PathFileType	4	(X/Y/Z)	Patient4_TMGait_0pt8_01_right_05.trc.trc
DataRate	CameraRate	NumFrames	NumMarkers	Units	OrigDataRate	OrigDataStartFrame	OrigNumFrames
88.607594936709	88.607594936709	4	33	mm	88.607594936709	106	       141
Frame#	Time	Sacral			L.Shoulder			Chest			R.Shoulder			Neck			R.ASIS			L.ASIS			R.Thigh.Superior			R.Thigh.Lateral			R.Thigh.Inferior			R.Patella			L.Thigh.Superior			L.Thigh.Lateral			L.Thigh.Inferior			L.Patella			L.Shank.Superior			L.Shank.Lateral			L.Shank.Inferior			R.Shank.Superior			R.Shank.Lateral			R.Shank.Inferior			R.Heel			R.Midfoot.Superior			R.Midfoot.Lateral			R.Toe			L.Heel			L.Midfoot.Lateral			L.Midfoot.Superior			L.Toe			L.Elbow			L.Wrist			R.Elbow			R.Wrist			
		X1	Y1	Z1	X2	Y2	Z2	X3	Y3	Z3	X4	Y4	Z4	X5	Y5	Z5	X6	Y6	Z6	X7	Y7	Z7	X8	Y8	Z8	X9	Y9	Z9	X10	Y10	Z10	X11	Y11	Z11	X12	Y12	Z12	X13	Y13	Z13	X14	Y14	Z14	X15	Y15	Z15	X16	Y16	Z16	X17	Y17	Z17	X18	Y18	Z18	X19	Y19	Z19	X20	Y20	Z20	X21	Y21	Z21	X22	Y22	Z22	X23	Y23	Z23	X24	Y24	Z24	X25	Y25	Z25	X26	Y26	Z26	X27	Y27	Z27	X28	Y28	Z28	X29	Y29	Z29	X30	Y30	Z30	X31	Y31	Z31	X32	Y32	Z32	X33	Y33	Z33	

106	6.505000000000	826.894670743180	1011.706681430505	454.685630571346	1025.680199360441	1439.836314631107	282.856875263648	1113.245150888281	1371.073304742745	452.454722897654	1015.352281916606	1442.958172525189	619.830630961496	998.309051738526	1500.609769637380	439.293239867069	1048.420163585544	952.022190795718	583.521328469780	1049.656379951361	967.214471914115	309.872737955196	1143.733107275371	795.725805546143	555.050767664614	1115.297391164291	672.512545686542	631.426813681800	1208.992572842493	640.095428767983	554.546879171453	1238.662746992854	530.554562951183	578.923012567936	1082.597270726111	749.386606273963	341.647491882582	986.152887761926	639.836509180790	276.711838344661	1059.759730697555	556.132804601846	344.218480885741	1053.333955182356	488.856336210738	354.651724672173	1028.623063507207	418.989220040034	345.117456778234	939.493986956608	304.275313552582	296.236610305821	991.180764222113	194.219172997285	368.276893927816	1172.203384209907	447.345220346992	585.890629078007	1057.993615962820	392.616909074931	647.920505385521	1057.218073313866	282.548037688709	599.084801257837	866.098207343525	194.818806330263	572.414499789494	1041.720999401190	160.659715512478	614.787425434110	932.273443375129	144.138241348133	646.645440557414	1119.656515795906	56.529823562890	640.979581657516	863.115374976434	37.997798536269	414.153924330051	933.779122844293	35.786790777536	330.299842874878	1018.089247244872	96.860801141864	355.020397279899	1145.067733199394	46.005127264725	320.486963917246	1059.780086489056	1097.367067334841	143.103716632854	1211.518449171929	884.772839605043	161.987501041182	953.778872166558	1093.341360224790	724.329013756966	1062.930827570312	856.225979097852	726.523961173235	
107	6.516285714286	825.619070525441	1011.195083239258	453.714889753985	1026.611841096376	1440.184398975810	284.067085587331	1112.659457566617	1370.500575977078	454.050760862698	1013.616062174883	1441.779914652196	620.976578369423	998.099617522991	1500.288169106112	440.606729314205	1046.611291123511	952.121648270561	583.925994989154	1049.153991802707	966.981806672487	310.141413149294	1143.286144225283	797.796217384947	555.688159693946	1116.228170349996	674.457757418211	632.434255890317	1209.949060163006	642.732533307412	555.444953156287	1241.838745514706	535.252699159944	580.358354077281	1079.823533335160	748.212768565377	342.556012466955	982.545051037508	639.580795532293	276.535193183122	1054.361153638901	555.027003712736	344.626494943140	1047.022925748926	487.941736345359	355.021879871594	1022.055903277969	418.248695873818	345.313731745792	932.366108070794	304.099985953148	296.156809576606	982.901219016292	193.796744671695	368.528829908486	1179.604803767016	449.911493454824	587.759542189938	1069.480695091603	388.599776918800	650.582893664726	1075.070991819068	278.574346723879	601.951018975283	889.571409652175	180.352113955157	576.146077988576	1066.950766892353	155.236556773987	618.305149761161	958.528536483729	132.929125908389	650.201114132761	1150.145506941828	54.982406767074	643.934287278030	853.985100087384	37.914226545690	414.151209374017	924.664960366693	35.737791551528	330.306733208798	1008.953524056540	96.825828930280	355.153819725566	1135.947092989546	46.090714199179	320.542153778320	1068.091260791258	1100.438356948938	140.912653539278	1230.607579549966	896.087747133385	161.655058814977	946.331838726405	1092.408368871991	723.457135191070	1036.251004829352	847.383470204997	731.715910389926	
108	6.527571428571	824.477105757657	1010.664708054789	452.812439718889	1027.610842327295	1440.437216353794	285.428950080199	1112.206449855433	1369.808791249833	455.739906306499	1012.074267635771	1440.508084806249	622.238644356591	997.992087205279	1499.855785156789	442.048814209048	1044.879157210403	951.954060498512	584.373815146492	1048.784633446997	966.651061213019	310.460921525931	1142.457374377334	799.179411997898	556.444166592489	1116.349466651972	675.821572489770	633.594781431568	1210.037745299462	644.537316112920	556.554104434397	1243.940115863682	539.356632353525	582.012218944445	1077.128796665606	746.951738993325	343.406246241516	978.942137079625	639.294721704837	276.372373453523	1048.921706516187	553.893922389896	345.012628255868	1040.682813662971	487.019078556541	355.352436788101	1015.435646616632	417.509666043393	345.482171932418	925.205325705349	303.915633615003	296.048307327329	974.567524438142	193.369462506096	368.776565334717	1186.209950321108	452.149827310581	589.785506732846	1080.732816938432	384.270203661419	653.380080333639	1093.014906361256	274.715257286839	604.908556129346	914.088179528839	165.893808903615	579.886873749632	1092.729935649522	150.252851446318	621.753738504486	985.759948435379	121.930955087625	653.659039652961	1181.204041047688	54.426974851666	646.680050725344	844.867299717618	37.845065806702	414.140563486308	915.554037519556	35.691073314936	330.310939776937	999.820620492850	96.789883986607	355.284123645203	1126.826115710245	46.178126128411	320.597160331485	1075.848996490468	1103.545138483356	138.987901588789	1248.818542115694	908.161274562937	161.778760474712	938.892615296391	1091.701342172492	722.793978029875	1009.959329881322	840.761021887742	736.640637133706	
109	6.538857142857	823.505692906823	1010.123274373015	451.982361497473	1028.675296542851	1440.587997097000	286.932073834384	1111.894884542162	1369.009586416590	457.515454757125	1010.737890633576	1439.163116595405	623.607825050397	997.989195932148	1499.317621341274	443.605329853694	1043.255464421344	951.536506041217	584.878702820683	1048.581061983728	966.228968763313	310.846913216951	1141.246924311264	799.842772755790	557.311005444244	1115.655673964080	676.561764145248	634.917949539894	1209.285824069707	645.495417805343	557.890500001616	1244.993202030191	542.820048071853	583.852866642268	1074.520406928057	745.595541474971	344.191199572529	975.319917616708	638.987782531761	276.226760177552	1043.421360447600	552.742260500210	345.372076909161	1034.292624184116	486.096282720519	355.639280852447	1008.735567560692	416.788020361418	345.620874579058	917.989253410174	303.732798812891	295.913022047762	966.172144356059	192.948653755676	369.019851952407	1191.995647154190	454.063997830031	591.933326911201	1091.692668129328	379.743033307033	656.265947247380	1110.886622276102	271.123932275690	607.894668175858	939.469743341904	151.734618130024	583.578771311725	1118.809194942087	145.963867034433	625.058782435538	1013.760458005570	111.451530375591	656.961070205712	1212.510251972459	55.138911174803	649.136340737268	835.759941289476	37.797365566300	414.122603692732	906.445661270868	35.649774054232	330.312394591536	990.692566523626	96.754978827212	355.406350405867	1117.702975370335	46.267847569415	320.650097699081	1083.064988122919	1106.621171209234	137.348653284408	1266.069116934594	920.899606308624	162.346003285829	931.392018331085	1091.313507407760	722.408689194691	984.428192377585	836.279600970783	741.248768169707	
